<?xml version="1.0" standalone="no"?>
<!DOCTYPE svg PUBLIC "-//W3C//DTD SVG 20010904//EN"
 "http://www.w3.org/TR/2001/REC-SVG-20010904/DTD/svg10.dtd">
<svg version="1.0" xmlns="http://www.w3.org/2000/svg"
 width="420.000000pt" height="420.000000pt" viewBox="0 0 420.000000 420.000000"
 preserveAspectRatio="xMidYMid meet">
<metadata>
Created by potrace 1.14, written by Peter Selinger 2001-2017
</metadata>
<g transform="translate(0.000000,420.000000) scale(0.100000,-0.100000)"
fill="#000000" stroke="none">
<path d="M635 3034 c-107 -17 -215 -88 -279 -184 -28 -42 -22 -47 62 -48 74 0
78 1 112 33 19 18 53 41 75 50 52 22 177 23 226 3 46 -20 104 -71 123 -109 21
-41 45 -129 48 -173 l3 -36 78 0 79 0 -6 68 c-14 180 -108 317 -254 373 -57
21 -198 33 -267 23z"/>
<path d="M1655 2100 c0 -520 1 -732 2 -472 2 259 2 685 0 945 -1 259 -2 47 -2
-473z"/>
<path d="M2298 2918 c-21 -6 -38 -15 -38 -20 0 -6 9 -7 23 -3 153 48 487 5
615 -80 71 -47 88 -95 57 -155 -17 -33 -74 -80 -98 -80 -9 0 -18 -4 -21 -8 -6
-10 -96 -35 -198 -56 -37 -7 -111 -14 -165 -15 l-98 -1 158 156 c86 86 155
159 153 161 -12 13 -76 -39 -202 -166 -78 -78 -146 -141 -153 -141 -6 0 -34
12 -62 26 -28 14 -54 23 -57 19 -9 -8 14 -22 70 -42 l46 -17 -25 -31 c-14 -16
-57 -66 -97 -109 -89 -100 -215 -255 -239 -295 -29 -50 5 -39 38 12 23 34 93
120 150 183 6 6 42 46 80 89 143 160 117 144 225 143 103 0 244 21 355 53 235
69 261 218 55 317 -30 14 -158 48 -215 57 -69 11 -318 13 -357 3z"/>
<path d="M10 2780 c-7 -4 -9 -245 -8 -686 l3 -679 73 0 72 -1 0 278 0 278 253
1 c138 0 297 0 352 0 l100 0 -30 20 c-17 11 -74 42 -127 70 l-98 49 -225 0
-225 0 0 270 0 270 416 0 416 0 -7 33 c-4 17 -15 48 -25 67 l-18 35 -456 0
c-251 1 -461 -2 -466 -5z"/>
<path d="M1154 2752 c4 -15 10 -49 13 -75 5 -42 11 -52 44 -74 61 -40 88 -119
83 -244 -4 -119 -37 -189 -104 -224 -26 -13 -90 -23 -166 -24 l-32 -1 69 -69
69 -68 46 8 c143 27 238 138 265 308 38 246 -58 425 -255 479 l-38 11 6 -27z"/>
<path d="M3819 2716 c-20 -7 -56 -27 -80 -44 -40 -28 -50 -31 -101 -27 -32 2
-58 1 -58 -3 0 -4 19 -7 43 -7 23 0 45 -1 50 -3 4 -2 -25 -37 -65 -78 -67 -68
-80 -76 -151 -99 -43 -14 -88 -25 -101 -25 -19 0 -21 4 -18 35 l4 35 -46 0
c-33 0 -66 -10 -114 -34 -37 -18 -106 -48 -154 -66 -49 -19 -86 -35 -84 -37 4
-4 103 31 161 57 43 19 54 18 37 -2 -14 -17 -18 -50 -9 -65 14 -22 71 -14 119
16 25 16 49 34 52 40 4 6 22 11 41 11 19 0 68 11 109 24 l74 23 -31 -56 c-37
-68 -33 -91 17 -91 34 0 104 33 261 124 77 44 145 60 159 38 3 -4 -9 -30 -26
-56 -58 -88 -3 -84 214 16 102 47 72 46 -35 -1 -181 -79 -200 -81 -153 -18 33
46 39 67 18 67 -9 0 -23 4 -31 9 -10 7 -1 17 37 42 50 33 64 49 41 49 -16 0
-51 -20 -79 -45 -24 -21 -184 -113 -319 -182 -102 -53 -125 -44 -86 33 37 71
51 85 152 147 49 31 96 63 102 71 10 12 29 14 89 10 43 -3 84 -8 92 -10 10 -4
12 -2 5 5 -5 5 -37 11 -70 12 -33 1 -64 4 -68 6 -4 3 6 19 23 36 46 47 38 63
-21 43z m-1 -41 c-24 -23 -46 -35 -65 -35 -26 0 -24 3 27 35 69 45 85 44 38 0z
m-70 -57 c-27 -26 -132 -91 -118 -73 36 45 87 84 108 85 19 0 21 -2 10 -12z
m-470 -145 c0 -10 2 -25 6 -34 14 -33 -102 -105 -127 -80 -17 17 12 69 56 101
47 34 66 38 65 13z m33 -20 c-10 -17 -10 -16 -11 3 0 23 13 41 18 25 2 -6 -1
-18 -7 -28z"/>
<path d="M3313 2643 c9 -2 25 -2 35 0 9 3 1 5 -18 5 -19 0 -27 -2 -17 -5z"/>
<path d="M3391 2646 c7 -7 169 -9 176 -2 3 3 -36 6 -87 6 -51 0 -91 -2 -89 -4z"/>
<path d="M294 2631 c-9 -9 -3 -89 11 -155 34 -162 141 -266 422 -411 223 -114
303 -227 303 -425 0 -228 -104 -343 -310 -343 -86 0 -160 27 -217 79 -44 41
-88 128 -103 207 -14 74 -6 69 -105 69 -65 0 -63 1 -58 -39 31 -248 136 -385
338 -440 46 -12 222 -12 275 1 128 30 229 106 280 210 48 98 59 153 55 284 -3
133 -7 153 -39 225 -55 124 -159 214 -378 328 -234 122 -304 198 -315 343 -5
51 -9 66 -22 67 -57 3 -133 3 -137 0z"/>
<path d="M3975 2620 c-3 -5 -1 -10 4 -10 6 0 11 5 11 10 0 6 -2 10 -4 10 -3 0
-8 -4 -11 -10z"/>
<path d="M3050 2525 c-16 -19 -10 -19 26 0 25 13 26 15 8 15 -12 0 -27 -7 -34
-15z"/>
<path d="M2952 2438 c-42 -41 -51 -61 -32 -73 6 -3 10 2 10 12 0 9 19 37 42
60 23 24 38 43 32 43 -6 0 -29 -19 -52 -42z"/>
<path d="M2597 2033 c292 -2 774 -2 1070 0 296 1 57 2 -532 2 -588 0 -831 -1
-538 -2z"/>
<path d="M2510 1921 c0 -5 9 -11 20 -14 33 -9 23 -28 -47 -96 -75 -71 -56 -68
24 3 53 47 69 79 49 94 -18 14 -46 22 -46 13z"/>
<path d="M2363 1902 c-29 -8 -53 -18 -53 -22 0 -4 19 -1 43 7 23 8 60 18 82
23 33 6 35 8 10 8 -16 0 -54 -7 -82 -16z"/>
<path d="M2205 1845 c-87 -38 -123 -69 -105 -91 6 -7 37 -20 68 -30 160 -48
211 -127 143 -220 -45 -62 -99 -100 -193 -135 -42 -16 -46 -19 -18 -14 42 6
144 57 182 90 47 40 78 95 78 136 0 66 -55 113 -177 153 -29 10 -56 22 -59 27
-11 18 26 47 94 75 66 27 95 44 77 44 -6 0 -46 -16 -90 -35z"/>
<path d="M3946 1782 c-28 -19 -85 -65 -126 -102 -41 -37 -88 -75 -105 -84 -16
-10 -21 -14 -10 -11 16 5 14 0 -9 -24 -17 -17 -26 -31 -22 -31 11 0 66 30 66
36 0 3 -4 2 -10 -1 -19 -12 -10 4 17 29 14 14 66 48 115 77 88 52 168 117 168
136 0 19 -33 9 -84 -25z m48 -3 c-17 -19 -137 -104 -174 -123 -25 -13 61 63
124 110 61 45 84 51 50 13z"/>
<path d="M2613 1674 c3 -3 -6 -17 -21 -30 -22 -19 -24 -23 -9 -24 9 0 17 5 17
11 0 5 5 7 12 3 6 -4 8 -3 4 4 -3 6 -2 13 4 17 14 8 13 25 -2 25 -6 0 -9 -3
-5 -6z"/>
<path d="M3110 1673 c0 -6 -8 -9 -17 -7 -10 3 -47 -14 -83 -36 -36 -22 -60
-40 -55 -40 6 0 35 16 65 35 59 38 98 48 59 15 -17 -13 -19 -19 -9 -19 17 0
55 47 46 56 -3 4 -6 2 -6 -4z"/>
<path d="M2548 1648 c-21 -12 -38 -25 -38 -30 0 -4 17 4 37 18 61 41 61 47 1
12z"/>
<path d="M2693 1627 c27 -22 21 -35 -30 -61 -27 -14 -44 -25 -40 -26 4 0 26 9
49 21 l40 21 -14 -21 c-30 -43 -109 -95 -188 -124 -10 -3 -10 -6 -2 -6 42 -3
168 76 202 126 25 37 22 57 -12 73 -21 10 -21 10 -5 -3z"/>
<path d="M3189 1623 l24 -16 -29 -25 c-24 -19 -25 -22 -5 -12 22 11 23 11 10
-8 -22 -30 -71 -69 -125 -96 -27 -14 -42 -25 -34 -25 46 0 175 102 186 146 6
23 -16 52 -41 53 -5 0 1 -8 14 -17z"/>
<path d="M4025 1627 c-16 -7 -55 -25 -85 -41 -30 -16 -70 -34 -90 -42 -19 -7
-28 -13 -20 -13 8 0 34 8 58 19 24 11 42 15 42 8 0 -10 29 -7 62 7 13 5 16 2
11 -17 -5 -22 -4 -22 14 4 10 14 31 36 46 48 27 22 35 40 17 40 -5 0 -10 -6
-10 -13 0 -11 -98 -67 -116 -67 -17 0 26 36 64 52 23 10 42 21 42 23 0 6 3 6
-35 -8z"/>
<path d="M3787 1603 c-45 -24 -47 -26 -34 -46 7 -11 20 -23 28 -25 10 -2 11
-1 2 5 -20 14 -8 43 25 63 35 22 52 25 52 11 0 -5 -16 -16 -35 -25 -19 -9 -35
-19 -35 -21 0 -8 55 16 72 32 44 40 -3 43 -75 6z"/>
<path d="M2784 1601 c-30 -19 -64 -57 -64 -73 0 -5 7 -8 16 -8 8 0 12 5 9 11
-10 15 24 49 70 70 26 12 33 19 20 19 -11 0 -34 -9 -51 -19z"/>
<path d="M3450 1569 c-40 -27 -76 -47 -78 -45 -2 2 4 18 13 35 15 29 14 31 -2
31 -10 -1 -34 -14 -53 -30 -56 -48 -80 -36 -39 21 11 16 16 29 10 29 -15 0
-54 -69 -47 -85 6 -18 41 -7 89 27 18 13 27 16 22 7 -30 -51 -57 -74 -153
-130 -59 -34 -126 -77 -149 -96 -74 -59 -26 -85 72 -39 63 29 104 63 168 140
49 60 72 79 152 126 l40 23 -30 -34 c-16 -18 -33 -36 -36 -39 -5 -5 -129 -157
-153 -189 -8 -10 -8 -13 0 -10 7 2 46 46 89 97 46 56 82 91 90 88 8 -3 12 2
10 12 -1 11 18 30 54 54 31 21 52 38 46 38 -5 -1 -19 -7 -29 -15 -29 -22 -42
-18 -21 5 31 35 12 29 -65 -21z m-174 -141 c-64 -79 -165 -148 -214 -148 -34
0 -24 19 32 61 38 29 202 127 214 129 2 0 -12 -19 -32 -42z"/>
<path d="M3616 1599 c9 -16 -46 -58 -76 -59 -20 0 -22 -2 -10 -11 11 -8 6 -9
-20 -5 -26 5 -30 4 -15 -3 l20 -10 -20 -1 c-12 -1 -15 -4 -7 -7 12 -4 35 5
152 60 34 16 34 16 5 10 -26 -5 -28 -4 -18 9 13 15 8 28 -9 28 -5 0 -6 -5 -2
-11z"/>
<path d="M4095 1569 c-43 -21 -73 -39 -65 -39 8 1 49 19 90 40 98 51 79 50
-25 -1z"/>
<path d="M2880 1570 c-8 -5 -10 -10 -5 -10 6 0 17 5 25 10 8 5 11 10 5 10 -5
0 -17 -5 -25 -10z"/>
<path d="M2035 1541 c-65 -39 -92 -94 -75 -147 10 -31 44 -54 57 -40 4 3 0 6
-7 6 -19 0 -39 31 -40 63 0 41 25 82 65 107 19 12 35 24 35 26 0 6 -3 5 -35
-15z"/>
<path d="M2795 1539 c-22 -10 -29 -16 -16 -13 37 10 88 33 71 33 -8 0 -33 -9
-55 -20z"/>
<path d="M3060 1519 c-95 -51 -120 -74 -101 -91 8 -7 11 -8 8 -2 -9 16 27 46
106 89 37 20 67 39 67 41 0 6 -1 6 -80 -37z"/>
<path d="M2550 1508 c-84 -46 -106 -70 -76 -81 10 -4 13 -1 9 9 -6 17 14 35
77 66 55 27 54 27 49 32 -2 3 -29 -9 -59 -26z"/>
<path d="M2988 1433 c7 -3 16 -2 19 1 4 3 -2 6 -13 5 -11 0 -14 -3 -6 -6z"/>
<path d="M2036 1352 c-3 -5 1 -9 9 -9 8 0 12 4 9 9 -3 4 -7 8 -9 8 -2 0 -6 -4
-9 -8z"/>
</g>
</svg>
